<svg width="1400" height="900" viewBox="0 0 1400 900" xmlns="http://www.w3.org/2000/svg">
  <rect width="1400" height="900" fill="#0f172a"/>
  <rect x="80" y="80" width="1240" height="740" rx="28" fill="#111827" stroke="#334155"/>
  <rect x="140" y="160" width="460" height="480" rx="20" fill="#1e293b"/>
  <rect x="170" y="190" width="400" height="300" rx="16" fill="#0f766e"/>
  <path d="M180 470 L260 390 L340 435 L410 330 L520 470" stroke="#f8fafc" stroke-width="8" fill="none" stroke-linecap="round"/>
  <circle cx="245" cy="260" r="38" fill="#fbbf24"/>
  <rect x="680" y="160" width="560" height="520" rx="20" fill="#1e293b"/>
  <rect x="720" y="210" width="480" height="70" rx="12" fill="#0f172a"/>
  <text x="740" y="255" font-family="Segoe UI, Arial, sans-serif" font-size="28" font-weight="700" fill="#f8fafc">Prediction: mountain</text>
  <rect x="720" y="310" width="480" height="70" rx="12" fill="#0f172a"/>
  <text x="740" y="355" font-family="Segoe UI, Arial, sans-serif" font-size="28" font-weight="700" fill="#38bdf8">Confidence: 92.41%</text>
  <rect x="720" y="410" width="480" height="220" rx="16" fill="#0f172a"/>
  <text x="740" y="455" font-family="Segoe UI, Arial, sans-serif" font-size="22" fill="#cbd5e1">buildings: 0.04</text>
  <text x="740" y="495" font-family="Segoe UI, Arial, sans-serif" font-size="22" fill="#cbd5e1">forest: 0.06</text>
  <text x="740" y="535" font-family="Segoe UI, Arial, sans-serif" font-size="22" fill="#cbd5e1">mountain: 0.92</text>
  <text x="740" y="575" font-family="Segoe UI, Arial, sans-serif" font-size="22" fill="#cbd5e1">sea: 0.01</text>
</svg>